<svg width="126" height="103" viewBox="0 0 126 103" fill="none" xmlns="http://www.w3.org/2000/svg">
<g id="Group">
<path id="Vector" d="M77.1689 49.7348V70.0414L68.0052 76.7007L67.8409 76.8255L43.1938 93.0918L38.5926 96.4413L33.8637 93.0086V67.1261L9.51177 83.6633V102.76L0.181641 95.9777V76.8782L9.51177 70.1063L10.2827 69.5413L33.8637 53.5711L39.3027 49.6151L43.1938 52.4523V79.5358L64.532 65.6583L67.8409 63.2593V44.0787L68.6128 43.5137L77.1689 49.7348Z" fill="#D1D1E4"/>
<path id="Vector_2" d="M117.985 3.62989L123.254 7.46317V25.7014L114.925 31.7532L114.902 31.7704L114.88 31.7887L114.776 31.8678L90.1912 48.0926L90.1526 48.1179L90.1141 48.1453L86.7068 50.6265L84.0086 48.6667V23.8188V19.9896L80.8398 22.141L56.4879 38.6783L55.5983 39.2828V40.358V55.4711L50.3266 51.6388V34.6076L58.827 28.4382L59.5665 27.8945L83.117 11.9446L83.1454 11.9254L83.1728 11.905L87.4159 8.81935L89.2803 10.1786V36.2296V39.9695L92.4157 37.9307L113.754 24.0531L113.796 24.0247L113.838 23.9953L117.148 21.5974L117.986 20.9887V19.954V3.62989M116.728 0.207397L115.956 0.773397V19.9551L112.646 22.352L91.308 36.2306V9.14804L87.4169 6.31086L81.9789 10.2648L58.3979 26.235L57.626 26.8021L48.2969 33.5739V52.6724L57.626 59.4555V40.359L81.9789 23.8208V49.7033L86.7079 53.137L91.308 49.7866L115.956 33.5212L116.118 33.3964L125.283 26.7382V6.43054L116.728 0.207397Z" fill="#D1D1E4"/>
</g>
</svg>
