<?xml version="1.0" encoding="utf-8"?>
<!-- Generator: Adobe Illustrator 16.0.0, SVG Export Plug-In . SVG Version: 6.00 Build 0)  -->
<!DOCTYPE svg PUBLIC "-//W3C//DTD SVG 1.1//EN" "http://www.w3.org/Graphics/SVG/1.1/DTD/svg11.dtd">
<svg version="1.1" xmlns="http://www.w3.org/2000/svg" xmlns:xlink="http://www.w3.org/1999/xlink" x="0px" y="0px" width="1024px"
	 height="300px" viewBox="0 0 1024 300" enable-background="new 0 0 1024 300" xml:space="preserve">
<g id="x1">
	<g display="none">
		<path display="inline" fill="#C58940" d="M641.484,168.298l27.923,22.119l-9.433,28.205l-35.94,1.937
			c-4.425,7.341-9.584,14.192-15.351,20.516l9.228,33.844l-24.7,17.43l-30.212-18.945c-4.631,1.958-9.408,3.698-14.274,5.132
			v-31.618c35.013-15.292,59.494-50.24,59.494-90.898c0-35.873-19.063-67.293-47.595-84.698
			c-15.031-9.167-32.683-14.458-51.57-14.458c-18.679,0-36.154,5.178-51.075,14.17c-28.817,17.34-48.079,48.92-48.079,84.985
			c0,40.658,24.479,75.606,59.496,90.898v31.111c-4.297-1.323-8.484-2.886-12.583-4.625l-30.209,18.945l-24.705-17.43l9.212-33.844
			c-5.771-6.323-10.927-13.175-15.356-20.516l-35.918-1.937l-9.431-28.205l27.896-22.119c-0.419-4.167-0.636-8.399-0.636-12.675
			c0-4.293,0.217-8.506,0.636-12.691l-27.896-22.102l9.431-28.225l35.918-1.942c4.43-7.335,9.586-14.207,15.356-20.492L401.9,36.306
			l24.705-17.43l30.209,18.969c0.398-0.172,0.771-0.327,1.165-0.481c7.562-3.176,15.472-5.642,23.67-7.384l13.002-32.611h30.489
			l13.009,32.611c7.755,1.655,15.268,3.967,22.476,6.899c0.79,0.304,1.585,0.639,2.375,0.966l30.212-18.969l24.7,17.43
			l-9.228,33.865c5.767,6.285,10.926,13.157,15.351,20.492l35.94,1.942l9.433,28.225l-27.923,22.102
			c0.424,4.185,0.645,8.398,0.645,12.691C642.129,159.898,641.908,164.13,641.484,168.298z"/>
		<path display="inline" fill="#171444" d="M588.385,156.018c0,24.131-10.772,45.726-27.761,60.292
			c-3.685,3.149-7.673,5.991-11.899,8.414c-6.153,3.569-12.8,6.303-19.839,8.133v71.612l-3.746,9.408h-30.489l-5.425-13.615v-67.405
			c-7.027-1.83-13.683-4.563-19.83-8.133c-4.056-2.337-7.865-5.023-11.417-8.022c-17.273-14.54-28.245-36.332-28.245-60.684
			c0-24.347,10.972-46.14,28.245-60.683v75.846l11.417,8.35l19.83,14.503l20.079,14.672l19.581-13.639l19.839-13.812l11.899-8.288
			V95.735C577.612,110.3,588.385,131.891,588.385,156.018z"/>
		<polygon display="inline" fill="#C58940" points="548.235,122.397 548.235,165.274 528.886,179.334 528.539,179.6 
			518.664,186.739 508.951,193.812 498.964,186.562 498.964,131.912 489.096,139.077 489.096,179.4 469.396,165.08 469.396,124.751 
			489.096,110.453 490.726,109.259 498.964,103.291 510.449,94.939 518.664,100.93 518.664,158.115 521.553,156.018 
			528.539,150.955 528.539,110.453 530.171,109.259 		"/>
	</g>
	<g>
		<g>
			<path fill="#F78E1E" d="M268.231,164.423l25.148,19.917l-8.497,25.402l-32.363,1.74c-3.985,6.611-8.631,12.779-13.822,18.47
				l8.309,30.478l-22.244,15.698l-27.203-17.063c-4.169,1.765-8.471,3.33-12.856,4.622v-28.471
				c31.528-13.771,53.574-45.239,53.574-81.847c0-32.302-17.166-60.595-42.855-76.266c-13.534-8.258-29.429-13.02-46.436-13.02
				c-16.818,0-32.554,4.662-45.99,12.76c-25.949,15.611-43.294,44.05-43.294,76.525c0,36.608,22.043,68.077,53.574,81.847v28.014
				c-3.869-1.192-7.637-2.599-11.331-4.165l-27.201,17.063L52.499,260.43l8.296-30.478c-5.196-5.69-9.84-11.858-13.828-18.47
				l-32.342-1.74L6.131,184.34l25.121-19.917c-0.378-3.751-0.574-7.561-0.574-11.411c0-3.865,0.196-7.66,0.574-11.427L6.131,121.682
				l8.494-25.414l32.342-1.749c3.988-6.607,8.631-12.793,13.828-18.451l-8.296-30.493l22.245-15.699l27.201,17.083
				c0.359-0.156,0.697-0.295,1.051-0.434c6.81-2.86,13.93-5.08,21.316-6.648l11.707-29.365h27.452l11.712,29.365
				c6.982,1.487,13.752,3.57,20.239,6.21c0.708,0.273,1.431,0.576,2.138,0.871l27.203-17.083l22.244,15.699l-8.309,30.493
				c5.191,5.658,9.837,11.844,13.822,18.451l32.363,1.749l8.497,25.414l-25.148,19.903c0.385,3.767,0.582,7.562,0.582,11.427
				C268.813,156.862,268.616,160.671,268.231,164.423z"/>
			<path fill="#2C2B73" d="M220.418,153.369c0,21.727-9.701,41.172-24.997,54.288c-3.319,2.836-6.912,5.396-10.718,7.577
				c-5.541,3.214-11.526,5.673-17.858,7.322v64.483l-3.375,8.471h-27.452l-4.886-12.259v-60.695
				c-6.325-1.649-12.324-4.108-17.857-7.322c-3.652-2.105-7.082-4.526-10.28-7.224c-15.556-13.095-25.436-32.718-25.436-54.641
				c0-21.926,9.88-41.548,25.436-54.643v68.294l10.28,7.518l17.857,13.06l18.08,13.213l17.632-12.28l17.858-12.437l10.718-7.464
				V99.084C210.718,112.202,220.418,131.642,220.418,153.369z"/>
			<polygon fill="#F78E1E" points="184.264,123.095 184.264,161.704 166.845,174.362 166.532,174.599 157.641,181.029 
				148.895,187.398 139.9,180.871 139.9,131.661 131.016,138.116 131.016,174.422 113.276,161.527 113.276,125.213 131.016,112.337 
				132.484,111.264 139.9,105.887 150.242,98.37 157.641,103.764 157.641,155.255 160.238,153.369 166.532,148.807 166.532,112.337 
				167.997,111.264 			"/>
		</g>
		<g>
			<path fill="#2C2B73" d="M445.194,221.757h-41.466l-39.679-106.54c1.32,10.449,2.346,19.676,3.075,27.676
				c0.726,8.006,1.093,17.495,1.093,28.471v50.394h-28.968V84.266h40.475l40.67,106.737c-2.912-18.117-4.365-35.181-4.365-51.186
				V84.266h29.165V221.757z"/>
			<path fill="#2C2B73" d="M561.255,97.757l-16.467,17.26c-4.896-3.699-9.424-6.377-13.59-8.035
				c-4.165-1.651-8.96-2.479-14.384-2.479c-10.188,0-18.322,4.001-24.403,12.003c-6.085,8.006-9.125,20.138-9.125,36.405
				c0,17.594,2.311,30.06,6.943,37.398c4.628,7.342,11.837,11.011,21.627,11.011c6.876,0,13.093-1.516,18.648-4.562V165.61h-17.856
				l-3.174-23.013h52.577v68.049c-7.143,4.632-15.015,8.202-23.612,10.715c-8.598,2.511-17.194,3.768-25.791,3.768
				c-20.899,0-36.638-6.116-47.22-18.35c-10.583-12.235-15.87-30.189-15.87-53.868c0-15.078,2.877-28.036,8.628-38.885
				c5.754-10.843,13.622-19.078,23.611-24.699c9.983-5.621,21.193-8.434,33.628-8.434C533.149,80.894,548.427,86.518,561.255,97.757
				z"/>
			<path fill="#2C2B73" d="M664.52,159.063c5.752,5.026,8.631,12.566,8.631,22.617c0,14.682-5.258,25.029-15.773,31.048
				c-10.514,6.023-25.23,9.028-44.144,9.028h-44.242V84.266h38.886c19.31,0,34.057,2.747,44.24,8.234
				c10.186,5.488,15.278,14.453,15.278,26.882c0,8.07-2.414,14.582-7.24,19.543c-4.829,4.96-10.814,8.301-17.955,10.019
				C651.325,150.665,658.766,154.038,664.52,159.063z M601.53,107.28v31.943h12.099c13.758,0,20.634-5.555,20.634-16.666
				c0-5.555-1.853-9.489-5.556-11.806c-3.702-2.311-9.59-3.472-17.655-3.472H601.53z M632.974,194.28
				c4.432-2.582,6.646-7.375,6.646-14.386c0-12.697-7.936-19.045-23.808-19.045H601.53v37.296h11.901
				C622.027,198.146,628.54,196.858,632.974,194.28z"/>
			<path fill="#2C2B73" d="M781.868,176.127c0,9.39-2.019,17.789-6.053,25.193c-4.037,7.41-10.085,13.23-18.153,17.462
				c-8.07,4.232-17.926,6.347-29.559,6.347c-17.459,0-30.753-4.429-39.881-13.29c-9.126-8.861-13.688-20.767-13.688-35.712V84.266
				h32.536v90.469c0,8.863,1.687,15.444,5.06,19.739c3.372,4.302,8.696,6.45,15.974,6.45c7.404,0,12.794-2.148,16.167-6.45
				c3.373-4.295,5.058-10.876,5.058-19.739V84.266h32.54V176.127z"/>
			<path fill="#2C2B73" d="M823.332,84.266v137.491h-32.539V84.266H823.332z M902.292,84.266l-43.842,61.702l47.417,75.789h-37.698
				l-43.847-73.407l43.651-64.084H902.292z"/>
			<path fill="#2C2B73" d="M973.913,221.757l-7.14-29.561h-40.077l-6.946,29.561h-33.723L927.49,84.266h39.482l41.464,137.491
				H973.913z M932.252,168.586h28.965l-14.484-60.709L932.252,168.586z"/>
		</g>
		<g>
			<path fill="#F78E1E" d="M268.231,164.423l25.148,19.917l-8.497,25.402l-32.363,1.74c-3.985,6.611-8.631,12.779-13.822,18.47
				l8.309,30.478l-22.244,15.698l-27.203-17.063c-4.169,1.765-8.471,3.33-12.856,4.622v-28.471
				c31.528-13.771,53.574-45.239,53.574-81.847c0-32.302-17.166-60.595-42.855-76.266c-13.534-8.258-29.429-13.02-46.436-13.02
				c-16.818,0-32.554,4.662-45.99,12.76c-25.949,15.611-43.294,44.05-43.294,76.525c0,36.608,22.043,68.077,53.574,81.847v28.014
				c-3.869-1.192-7.637-2.599-11.331-4.165l-27.201,17.063L52.499,260.43l8.296-30.478c-5.196-5.69-9.84-11.858-13.828-18.47
				l-32.342-1.74L6.131,184.34l25.121-19.917c-0.378-3.751-0.574-7.561-0.574-11.411c0-3.865,0.196-7.66,0.574-11.427L6.131,121.682
				l8.494-25.414l32.342-1.749c3.988-6.607,8.631-12.793,13.828-18.451l-8.296-30.493l22.245-15.699l27.201,17.083
				c0.359-0.156,0.697-0.295,1.051-0.434c6.81-2.86,13.93-5.08,21.316-6.648l11.707-29.365h27.452l11.712,29.365
				c6.982,1.487,13.752,3.57,20.239,6.21c0.708,0.273,1.431,0.576,2.138,0.871l27.203-17.083l22.244,15.699l-8.309,30.493
				c5.191,5.658,9.837,11.844,13.822,18.451l32.363,1.749l8.497,25.414l-25.148,19.903c0.385,3.767,0.582,7.562,0.582,11.427
				C268.813,156.862,268.616,160.671,268.231,164.423z"/>
			<path fill="#2C2B73" d="M220.418,153.369c0,21.727-9.701,41.172-24.997,54.288c-3.319,2.836-6.912,5.396-10.718,7.577
				c-5.541,3.214-11.526,5.673-17.858,7.322v64.483l-3.375,8.471h-27.452l-4.886-12.259v-60.695
				c-6.325-1.649-12.324-4.108-17.857-7.322c-3.652-2.105-7.082-4.526-10.28-7.224c-15.556-13.095-25.436-32.718-25.436-54.641
				c0-21.926,9.88-41.548,25.436-54.643v68.294l10.28,7.518l17.857,13.06l18.08,13.213l17.632-12.28l17.858-12.437l10.718-7.464
				V99.084C210.718,112.202,220.418,131.642,220.418,153.369z"/>
			<polygon fill="#F78E1E" points="184.264,123.095 184.264,161.704 166.845,174.362 166.532,174.599 157.641,181.029 
				148.895,187.398 139.9,180.871 139.9,131.661 131.016,138.116 131.016,174.422 113.276,161.527 113.276,125.213 131.016,112.337 
				132.484,111.264 139.9,105.887 150.242,98.37 157.641,103.764 157.641,155.255 160.238,153.369 166.532,148.807 166.532,112.337 
				167.997,111.264 			"/>
		</g>
		<g>
			<path fill="#2C2B73" d="M445.194,221.757h-41.466l-39.679-106.54c1.32,10.449,2.346,19.676,3.075,27.676
				c0.726,8.006,1.093,17.495,1.093,28.471v50.394h-28.968V84.266h40.475l40.67,106.737c-2.912-18.117-4.365-35.181-4.365-51.186
				V84.266h29.165V221.757z"/>
			<path fill="#2C2B73" d="M561.255,97.757l-16.467,17.26c-4.896-3.699-9.424-6.377-13.59-8.035
				c-4.165-1.651-8.96-2.479-14.384-2.479c-10.188,0-18.322,4.001-24.403,12.003c-6.085,8.006-9.125,20.138-9.125,36.405
				c0,17.594,2.311,30.06,6.943,37.398c4.628,7.342,11.837,11.011,21.627,11.011c6.876,0,13.093-1.516,18.648-4.562V165.61h-17.856
				l-3.174-23.013h52.577v68.049c-7.143,4.632-15.015,8.202-23.612,10.715c-8.598,2.511-17.194,3.768-25.791,3.768
				c-20.899,0-36.638-6.116-47.22-18.35c-10.583-12.235-15.87-30.189-15.87-53.868c0-15.078,2.877-28.036,8.628-38.885
				c5.754-10.843,13.622-19.078,23.611-24.699c9.983-5.621,21.193-8.434,33.628-8.434C533.149,80.894,548.427,86.518,561.255,97.757
				z"/>
			<path fill="#2C2B73" d="M664.52,159.063c5.752,5.026,8.631,12.566,8.631,22.617c0,14.682-5.258,25.029-15.773,31.048
				c-10.514,6.023-25.23,9.028-44.144,9.028h-44.242V84.266h38.886c19.31,0,34.057,2.747,44.24,8.234
				c10.186,5.488,15.278,14.453,15.278,26.882c0,8.07-2.414,14.582-7.24,19.543c-4.829,4.96-10.814,8.301-17.955,10.019
				C651.325,150.665,658.766,154.038,664.52,159.063z M601.53,107.28v31.943h12.099c13.758,0,20.634-5.555,20.634-16.666
				c0-5.555-1.853-9.489-5.556-11.806c-3.702-2.311-9.59-3.472-17.655-3.472H601.53z M632.974,194.28
				c4.432-2.582,6.646-7.375,6.646-14.386c0-12.697-7.936-19.045-23.808-19.045H601.53v37.296h11.901
				C622.027,198.146,628.54,196.858,632.974,194.28z"/>
			<path fill="#2C2B73" d="M781.868,176.127c0,9.39-2.019,17.789-6.053,25.193c-4.037,7.41-10.085,13.23-18.153,17.462
				c-8.07,4.232-17.926,6.347-29.559,6.347c-17.459,0-30.753-4.429-39.881-13.29c-9.126-8.861-13.688-20.767-13.688-35.712V84.266
				h32.536v90.469c0,8.863,1.687,15.444,5.06,19.739c3.372,4.302,8.696,6.45,15.974,6.45c7.404,0,12.794-2.148,16.167-6.45
				c3.373-4.295,5.058-10.876,5.058-19.739V84.266h32.54V176.127z"/>
			<path fill="#2C2B73" d="M823.332,84.266v137.491h-32.539V84.266H823.332z M902.292,84.266l-43.842,61.702l47.417,75.789h-37.698
				l-43.847-73.407l43.651-64.084H902.292z"/>
			<path fill="#2C2B73" d="M973.913,221.757l-7.14-29.561h-40.077l-6.946,29.561h-33.723L927.49,84.266h39.482l41.464,137.491
				H973.913z M932.252,168.586h28.965l-14.484-60.709L932.252,168.586z"/>
		</g>
	</g>
</g>
<g id="Mono" display="none">
	<g display="inline">
		<path fill="#FFFFFF" d="M641.484,168.298l27.923,22.119l-9.433,28.205l-35.94,1.937c-4.425,7.341-9.584,14.192-15.351,20.516
			l9.228,33.844l-24.7,17.43l-30.212-18.945c-4.631,1.958-9.408,3.698-14.274,5.132v-31.618
			c35.013-15.292,59.494-50.24,59.494-90.898c0-35.873-19.063-67.293-47.595-84.698c-15.031-9.167-32.683-14.458-51.57-14.458
			c-18.679,0-36.154,5.178-51.075,14.17c-28.817,17.34-48.079,48.92-48.079,84.985c0,40.658,24.479,75.606,59.496,90.898v31.111
			c-4.297-1.323-8.484-2.886-12.583-4.625l-30.209,18.945l-24.705-17.43l9.212-33.844c-5.771-6.323-10.927-13.175-15.356-20.516
			l-35.918-1.937l-9.431-28.205l27.896-22.119c-0.419-4.167-0.636-8.399-0.636-12.675c0-4.293,0.217-8.506,0.636-12.691
			l-27.896-22.102l9.431-28.225l35.918-1.942c4.43-7.335,9.586-14.207,15.356-20.492L401.9,36.306l24.705-17.43l30.209,18.969
			c0.398-0.172,0.771-0.327,1.165-0.481c7.562-3.176,15.472-5.642,23.67-7.384l13.002-32.611h30.489l13.009,32.611
			c7.755,1.655,15.268,3.967,22.476,6.899c0.79,0.304,1.585,0.639,2.375,0.966l30.212-18.969l24.7,17.43l-9.228,33.865
			c5.767,6.285,10.926,13.157,15.351,20.492l35.94,1.942l9.433,28.225l-27.923,22.102c0.424,4.185,0.645,8.398,0.645,12.691
			C642.129,159.898,641.908,164.13,641.484,168.298z"/>
		<path fill="#FFFFFF" d="M588.385,156.018c0,24.131-10.772,45.726-27.761,60.292c-3.685,3.149-7.673,5.991-11.899,8.414
			c-6.153,3.569-12.8,6.303-19.839,8.133v71.612l-3.746,9.408h-30.489l-5.425-13.615v-67.405c-7.027-1.83-13.683-4.563-19.83-8.133
			c-4.056-2.337-7.865-5.023-11.417-8.022c-17.273-14.54-28.245-36.332-28.245-60.684c0-24.347,10.972-46.14,28.245-60.683v75.846
			l11.417,8.35l19.83,14.503l20.079,14.672l19.581-13.639l19.839-13.812l11.899-8.288V95.735
			C577.612,110.3,588.385,131.891,588.385,156.018z"/>
		<polygon fill="#FFFFFF" points="548.235,122.397 548.235,165.274 528.886,179.334 528.539,179.6 518.664,186.739 508.951,193.812 
			498.964,186.562 498.964,131.912 489.096,139.077 489.096,179.4 469.396,165.08 469.396,124.751 489.096,110.453 490.726,109.259 
			498.964,103.291 510.449,94.939 518.664,100.93 518.664,158.115 521.553,156.018 528.539,150.955 528.539,110.453 
			530.171,109.259 		"/>
	</g>
	<g>
		<g display="inline">
			<path fill="#FFFFFF" d="M380.538,120.353l10.991,8.705l-3.712,11.103l-14.147,0.763c-1.741,2.891-3.771,5.586-6.042,8.074
				l3.632,13.322l-9.723,6.859l-11.891-7.457c-1.822,0.77-3.703,1.457-5.619,2.022v-12.446c13.782-6.02,23.417-19.776,23.417-35.778
				c0-14.12-7.504-26.487-18.733-33.337c-5.917-3.609-12.864-5.69-20.299-5.69c-7.352,0-14.229,2.039-20.103,5.577
				c-11.342,6.825-18.923,19.254-18.923,33.451c0,16.002,9.635,29.758,23.418,35.778v12.244c-1.691-0.519-3.339-1.136-4.952-1.82
				l-11.891,7.457l-9.724-6.859l3.626-13.322c-2.271-2.488-4.301-5.184-6.044-8.074l-14.137-0.763l-3.712-11.103l10.98-8.705
				c-0.165-1.641-0.25-3.307-0.25-4.989c0-1.689,0.085-3.347,0.25-4.994l-10.98-8.7l3.712-11.109l14.137-0.765
				c1.743-2.887,3.773-5.592,6.044-8.065l-3.626-13.329l9.724-6.86l11.891,7.465c0.156-0.068,0.304-0.128,0.458-0.189
				c2.977-1.25,6.09-2.221,9.317-2.906l5.118-12.836h12l5.12,12.836c3.052,0.651,6.01,1.561,8.847,2.715
				c0.311,0.121,0.624,0.252,0.935,0.38l11.891-7.465l9.723,6.86l-3.632,13.329c2.271,2.474,4.301,5.179,6.042,8.065l14.147,0.765
				l3.712,11.109l-10.991,8.7c0.167,1.647,0.253,3.305,0.253,4.994C380.792,117.046,380.706,118.712,380.538,120.353z"/>
			<path fill="#FFFFFF" d="M359.638,115.52c0,9.499-4.24,17.998-10.927,23.732c-1.45,1.239-3.02,2.356-4.684,3.312
				c-2.421,1.404-5.039,2.479-7.808,3.202v28.183l-1.475,3.705h-12l-2.135-5.36v-26.528c-2.767-0.723-5.387-1.797-7.805-3.202
				c-1.596-0.92-3.096-1.978-4.495-3.158c-6.798-5.722-11.116-14.301-11.116-23.886c0-9.583,4.318-18.161,11.116-23.885v29.853
				l4.495,3.288l7.805,5.707l7.903,5.778l7.708-5.37l7.808-5.437l4.684-3.262V91.792C355.398,97.525,359.638,106.024,359.638,115.52
				z"/>
			<polygon fill="#FFFFFF" points="343.835,102.287 343.835,119.163 336.22,124.696 336.083,124.802 332.196,127.61 
				328.372,130.396 324.442,127.543 324.442,106.031 320.558,108.852 320.558,124.722 312.804,119.086 312.804,103.213 
				320.558,97.585 321.2,97.116 324.442,94.767 328.962,91.479 332.196,93.838 332.196,116.346 333.333,115.52 336.083,113.526 
				336.083,97.585 336.724,97.116 			"/>
		</g>
		<g display="inline">
			<path fill="#FFFFFF" d="M470.196,85.926c0,3.321-0.117,8.333-0.347,15.034c-0.232,6.699-0.347,11.725-0.347,15.074
				c0,3.15,0.027,7.864,0.087,14.147c0.057,6.281,0.086,10.997,0.086,14.144c0,0.956-0.361,1.432-1.084,1.432
				c-0.433,0-1.083-0.045-1.95-0.13c-0.866-0.086-1.517-0.129-1.95-0.129c-0.461,0-1.169,0.043-2.122,0.129
				c-0.953,0.085-1.662,0.13-2.123,0.13c-0.52,0-1.14-0.476-1.863-1.432c-6.238-8.404-15.697-20.938-28.377-37.604
				c-1.963-2.54-3.103-3.956-3.423-4.245c-0.288,0-0.433,0.592-0.433,1.776c0,4.448,0.074,11.126,0.216,20.037
				c0.146,8.911,0.217,15.589,0.217,20.037c0,0.956-0.288,1.432-0.866,1.432c-0.489,0-1.242-0.045-2.252-0.13
				c-1.011-0.086-1.762-0.129-2.254-0.129c-0.519,0-1.292,0.043-2.317,0.129c-1.026,0.085-1.797,0.13-2.317,0.13
				c-0.722,0-1.083-0.289-1.083-0.868c0-3.177,0.151-7.963,0.456-14.36c0.302-6.4,0.454-11.2,0.454-14.407
				c0-3.493-0.129-9.792-0.389-18.888c-0.06-2.368-0.203-5.923-0.434-10.659l-0.044-0.563c-0.028-0.434,0.319-0.665,1.041-0.693
				c1.877-0.028,3.351-0.087,4.418-0.173c0.403-0.03,1.17-0.145,2.296-0.346c0.954-0.175,1.704-0.262,2.252-0.262
				c0.261,0,0.708,0.42,1.342,1.257c6.645,9.127,16.812,22.701,30.502,40.725c0.605,0.749,1.168,1.398,1.688,1.949
				c0.203-1.213,0.304-3.987,0.304-8.319c0-3.753-0.136-9.386-0.412-16.896c-0.273-7.509-0.411-13.127-0.411-16.852
				c0-0.955,0.289-1.431,0.866-1.431c0.521,0,1.307,0.044,2.362,0.13c1.054,0.086,1.841,0.129,2.362,0.129
				c0.547,0,1.372-0.043,2.469-0.129c1.099-0.086,1.921-0.13,2.47-0.13C469.892,84.973,470.196,85.291,470.196,85.926z"/>
			<path fill="#FFFFFF" d="M532.406,143.632c0.06,0.636-0.302,0.953-1.082,0.953c-0.433,0-1.479-0.412-3.142-1.235
				c-1.66-0.822-2.721-1.406-3.184-1.753c-5.316,3.61-11.61,5.415-18.888,5.415c-8.494,0-15.483-3.177-20.97-9.53
				c-5.2-6.01-7.799-13.329-7.799-21.967c0-8.837,2.556-16.26,7.67-22.268c5.402-6.354,12.435-9.532,21.099-9.532
				c4.447,0,8.73,1.048,12.844,3.14c4.115,2.096,7.402,4.962,9.857,8.601c0.374,0.548,0.563,0.968,0.563,1.256
				c0,0.405-1.033,1.74-3.098,4.007c-2.066,2.269-3.257,3.401-3.574,3.401c-0.231,0-1.112-0.881-2.643-2.642
				c-1.85-2.138-3.611-3.769-5.287-4.896c-2.628-1.763-5.37-2.643-8.23-2.643c-5.46,0-9.937,2.281-13.431,6.845
				c-3.179,4.159-4.766,9.069-4.766,14.73c0,5.517,1.631,10.399,4.895,14.644c3.554,4.592,8.015,6.887,13.388,6.887
				c5.285,0,10.137-1.443,14.556-4.333c-0.058-0.78-0.303-3.523-0.736-8.231c-0.347-3.35-0.521-6.078-0.521-8.188
				c0-0.491,0.32-0.737,0.955-0.737c0.548,0,1.372,0.038,2.47,0.108c1.097,0.074,1.921,0.108,2.47,0.108
				c0.546,0,1.385-0.027,2.512-0.086c1.127-0.056,1.964-0.087,2.515-0.087c0.604,0,0.907,0.464,0.907,1.389
				c0,1.008-0.034,2.532-0.107,4.569c-0.074,2.036-0.108,3.559-0.108,4.571c0,4.159,0.275,9.79,0.824,16.895L532.406,143.632z"/>
			<path fill="#FFFFFF" d="M586.043,127.04c0,5.025-1.519,9.344-4.552,12.954c-3.203,3.782-7.276,5.677-12.217,5.677
				c-1.848,0-4.627-0.044-8.34-0.13c-3.71-0.09-6.49-0.129-8.337-0.129c-1.358,0-3.402,0.057-6.131,0.17
				c-2.731,0.117-4.773,0.176-6.131,0.176c-0.724,0-1.083-0.333-1.083-0.999c0-3.176,0.15-7.95,0.456-14.317
				c0.302-6.369,0.452-11.143,0.452-14.319c0-3.351-0.15-8.383-0.452-15.097c-0.306-6.716-0.456-11.749-0.456-15.099
				c0-0.635,0.359-0.953,1.083-0.953c2.57,0,6.44,0.013,11.611,0.044c5.169,0.028,9.054,0.043,11.654,0.043
				c6.063,0,10.9,1.125,14.512,3.377c4.392,2.746,6.586,7.004,6.586,12.782c0,1.993-0.578,4.064-1.731,6.217
				c-1.156,2.151-2.559,3.776-4.205,4.873c-0.836,0.55-1.257,0.909-1.257,1.084c0,0.174,0.421,0.491,1.257,0.954
				c2.197,1.211,3.959,2.995,5.287,5.35C585.379,122.051,586.043,124.498,586.043,127.04z M573.867,102.171
				c0-4.072-1.818-6.816-5.459-8.231c-2.194-0.836-5.788-1.256-10.785-1.256c-4.854,0-7.279,0.36-7.279,1.083
				c0,0.953-0.045,2.383-0.131,4.288c-0.086,1.906-0.13,3.351-0.13,4.333c0,0.664,0.015,1.69,0.044,3.076
				c0.027,1.386,0.042,2.427,0.042,3.119c0,0.838,3.265,1.257,9.791,1.257C569.232,109.841,573.867,107.285,573.867,102.171z
				 M575.038,126.607c0-3.523-1.574-5.907-4.723-7.149c-1.993-0.81-5.096-1.211-9.314-1.211c-7.279,0-10.918,0.389-10.918,1.168
				v7.106c0,1.039,0.029,2.627,0.086,4.766c0.059,2.136,0.088,3.739,0.088,4.808c0,0.289,0.923,0.505,2.771,0.649
				c1.851,0.145,4.596,0.217,8.231,0.217c4.566,0,7.844-0.593,9.839-1.776C573.725,133.623,575.038,130.766,575.038,126.607z"/>
			<path fill="#FFFFFF" d="M643.099,85.926c0,3.351-0.138,8.37-0.411,15.054c-0.272,6.687-0.413,11.705-0.413,15.055
				c0,1.1,0.017,2.739,0.047,4.92c0.026,2.177,0.042,3.805,0.042,4.874c0,6.034-0.563,10.222-1.69,12.563
				c-1.732,3.581-5.098,6.007-10.095,7.279c-3.06,0.779-7.378,1.168-12.954,1.168c-10.109,0-16.736-1.675-19.884-5.025
				c-2.426-2.6-3.641-7.798-3.641-15.597c0-0.955,0.015-2.564,0.044-4.833c0.029-2.264,0.045-4.047,0.045-5.35
				c0-3.406-0.146-9.689-0.436-18.846c0-2.368-0.13-5.906-0.389-10.613c-0.03-0.347-0.044-0.577-0.044-0.694
				c0-0.605,0.376-0.909,1.126-0.909c1.184,0,2.788,0.013,4.81,0.044c2.34,0.028,3.93,0.043,4.766,0.043
				c0.664,0,0.996,0.259,0.996,0.778c0,4.39-0.094,10.991-0.28,19.799c-0.189,8.809-0.282,15.408-0.282,19.801
				c0,4.964,1.111,8.331,3.335,10.092c1.907,1.559,5.415,2.341,10.527,2.341c4.649,0,7.959-0.636,9.922-1.908
				c2.482-1.588,3.725-4.562,3.725-8.924c0-4.562-0.071-11.416-0.217-20.557c-0.143-9.14-0.214-15.993-0.214-20.557
				c0-0.461,0.418-0.751,1.255-0.866c0.607-0.087,1.474-0.087,2.601,0c1.328,0.114,1.963,0.172,1.906,0.172
				c0.519,0,1.306-0.043,2.359-0.129c1.056-0.086,1.843-0.13,2.361-0.13C642.739,84.973,643.099,85.291,643.099,85.926z"/>
			<path fill="#FFFFFF" d="M699.984,143.72c0,1.358-0.419,2.037-1.258,2.037h-9.963c-0.839,0-3.021-3.076-6.544-9.229
				c-2.975-5.198-4.952-8.955-5.934-11.265c-0.984-2.221-1.545-3.464-1.69-3.724c-0.866-1.445-1.877-2.21-3.033-2.297
				c-0.347-0.03-1.313-0.043-2.901-0.043c-3.641,0-5.461,0.446-5.461,1.342c0,2.657,0.096,6.63,0.283,11.915
				c0.187,5.287,0.28,9.243,0.28,11.87c0,0.956-0.359,1.432-1.082,1.432c-0.549,0-1.371-0.045-2.468-0.13
				c-1.1-0.086-1.925-0.129-2.471-0.129c-0.521,0-1.294,0.043-2.319,0.129c-1.023,0.085-1.796,0.13-2.317,0.13
				c-0.721,0-1.083-0.333-1.083-0.999c0-3.176,0.152-7.95,0.455-14.317c0.303-6.369,0.453-11.143,0.453-14.319
				c0-3.351-0.15-8.383-0.453-15.097c-0.303-6.716-0.455-11.749-0.455-15.099c0-0.635,0.362-0.953,1.083-0.953
				c0.521,0,1.313,0.044,2.384,0.13c1.067,0.086,1.877,0.129,2.426,0.129c0.519,0,1.299-0.043,2.34-0.129
				c1.04-0.086,1.817-0.13,2.339-0.13c0.664,0,0.996,0.259,0.996,0.78c0,2.455-0.078,6.151-0.238,11.09
				c-0.159,4.94-0.238,8.651-0.238,11.134c0,1.127,0.074,1.834,0.216,2.123c0.231,0.519,0.825,0.78,1.776,0.78
				c5.604,0,9.706-1.04,12.304-3.12c2.227-1.85,4.332-5.241,6.327-10.181c1.444-3.871,2.889-7.74,4.332-11.611
				c0.202-0.491,0.65-0.823,1.344-0.996c0.462-0.116,1.993-0.172,4.591-0.172c3.178,0,4.765,0.445,4.765,1.343
				c0,0.518-0.664,2.858-1.99,7.018c-1.56,4.852-3.584,9.127-6.066,12.823c-1.648,2.512-3.828,5.04-6.541,7.583
				c-0.694,0.606-1.041,1.156-1.041,1.646c0,0.519,1.171,3.103,3.511,7.754c2.02,4.016,3.854,7.237,5.501,9.661
				c1.82,2.224,4.361,5.647,7.624,10.269C699.91,143.156,699.984,143.429,699.984,143.72z"/>
			<path fill="#FFFFFF" d="M758.514,145.235c0,0.346-0.347,0.521-1.041,0.521c-0.549,0-1.351-0.045-2.403-0.13
				c-1.056-0.086-1.857-0.129-2.403-0.129c-0.551,0-1.373,0.043-2.47,0.129c-1.098,0.085-1.92,0.13-2.471,0.13
				c-0.809,0-1.84-2.189-3.1-6.565c-1.255-4.375-2.533-6.591-3.833-6.651c-1.067-0.057-3.855-0.086-8.359-0.086h-6.847
				c-4.766,0-7.479,0.029-8.143,0.086c-1.041,0.087-2.148,2.312-3.316,6.673c-1.169,4.362-2.071,6.542-2.706,6.542h-9.75
				c-0.575,0-0.866-0.203-0.866-0.609c0-0.287,0.202-0.936,0.607-1.948l10.614-29.026c0.895-2.34,3.611-9.084,8.146-20.233
				c0.809-1.848,1.906-4.635,3.293-8.361c0.345-1.097,0.722-1.646,1.125-1.646c0.548,0,1.357,0.074,2.428,0.216
				c1.067,0.145,1.875,0.219,2.424,0.219c0.521,0,1.306-0.08,2.361-0.24c1.056-0.159,1.828-0.239,2.317-0.239
				c0.261,0,0.623,0.535,1.083,1.604c0.695,1.618,4.115,10.325,10.269,26.125C754.166,133.826,758.514,145.034,758.514,145.235z
				 M738.323,121.32c0-0.836-1.297-4.589-3.897-11.264c-2.514-6.469-4.29-10.715-5.331-12.736
				c-5.978,15.248-8.967,23.236-8.967,23.959c0,0.979,1.098,1.559,3.292,1.732c0.115,0.03,1.53,0.043,4.248,0.043h4.461
				C736.26,123.054,738.323,122.478,738.323,121.32z"/>
		</g>
	</g>
	<g>
		<g display="inline">
			<path fill="#FFFFFF" d="M589.703,134.527l15.62,12.372l-5.277,15.777l-20.103,1.082c-2.475,4.106-5.36,7.937-8.585,11.472
				l5.161,18.931l-13.816,9.75l-16.896-10.599c-2.59,1.097-5.262,2.069-7.985,2.871V178.5c19.583-8.554,33.276-28.1,33.276-50.839
				c0-20.064-10.662-37.638-26.619-47.372c-8.406-5.129-18.279-8.086-28.843-8.086c-10.447,0-20.221,2.896-28.566,7.925
				c-16.118,9.697-26.892,27.361-26.892,47.533c0,22.739,13.692,42.285,33.277,50.839v17.4c-2.403-0.74-4.744-1.614-7.039-2.588
				l-16.895,10.599l-13.817-9.75l5.153-18.931c-3.228-3.535-6.112-7.366-8.588-11.472l-20.089-1.082l-5.276-15.777l15.604-12.372
				c-0.235-2.33-0.356-4.697-0.356-7.088c0-2.401,0.122-4.758,0.356-7.098l-15.604-12.362l5.276-15.785l20.089-1.086
				c2.477-4.104,5.361-7.946,8.588-11.46l-5.153-18.94l13.817-9.751l16.895,10.611c0.223-0.097,0.433-0.184,0.653-0.27
				c4.23-1.776,8.652-3.155,13.24-4.129l7.271-18.24h17.051l7.274,18.24c4.337,0.924,8.542,2.218,12.571,3.857
				c0.44,0.17,0.889,0.358,1.328,0.542l16.896-10.611l13.816,9.751l-5.161,18.94c3.225,3.514,6.11,7.357,8.585,11.46l20.103,1.086
				l5.277,15.785l-15.62,12.362c0.239,2.34,0.361,4.697,0.361,7.098C590.064,129.831,589.942,132.197,589.703,134.527z"/>
			<path fill="#FFFFFF" d="M560.005,127.661c0,13.495-6.025,25.573-15.526,33.721c-2.062,1.762-4.293,3.351-6.657,4.706
				c-3.441,1.996-7.159,3.523-11.093,4.549v40.052l-2.096,5.262h-17.051l-3.035-7.614v-37.699
				c-3.929-1.025-7.655-2.553-11.092-4.549c-2.268-1.308-4.399-2.812-6.385-4.487c-9.662-8.133-15.799-20.322-15.799-33.94
				c0-13.619,6.137-25.807,15.799-33.94v42.42l6.385,4.669l11.092,8.111l11.229,8.207l10.952-7.628l11.093-7.725l6.657-4.636V93.943
				C553.979,102.091,560.005,114.166,560.005,127.661z"/>
			<polygon fill="#FFFFFF" points="537.548,108.857 537.548,132.838 526.729,140.701 526.534,140.849 521.012,144.842 
				515.579,148.798 509.992,144.744 509.992,114.178 504.474,118.187 504.474,140.738 493.455,132.729 493.455,110.173 
				504.474,102.175 505.386,101.508 509.992,98.169 516.416,93.5 521.012,96.85 521.012,128.833 522.625,127.661 526.534,124.828 
				526.534,102.175 527.444,101.508 			"/>
		</g>
		<g display="inline">
			<path fill="#FFFFFF" d="M359.833,253.333c0,4.718-0.164,11.84-0.495,21.361c-0.327,9.521-0.492,16.662-0.492,21.423
				c0,4.475,0.042,11.174,0.123,20.102c0.084,8.925,0.123,15.624,0.123,20.1c0,1.355-0.512,2.032-1.538,2.032
				c-0.615,0-1.539-0.064-2.769-0.186c-1.234-0.122-2.158-0.184-2.773-0.184c-0.657,0-1.661,0.062-3.013,0.184
				c-1.358,0.121-2.362,0.186-3.019,0.186c-0.738,0-1.621-0.677-2.647-2.032c-8.865-11.944-22.306-29.756-40.323-53.438
				c-2.79-3.611-4.411-5.621-4.863-6.031c-0.41,0-0.617,0.841-0.617,2.523c0,6.32,0.104,15.812,0.308,28.471
				c0.207,12.663,0.309,22.151,0.309,28.475c0,1.355-0.41,2.032-1.231,2.032c-0.696,0-1.765-0.064-3.201-0.186
				c-1.437-0.122-2.503-0.184-3.201-0.184c-0.739,0-1.838,0.062-3.294,0.184c-1.458,0.121-2.556,0.186-3.293,0.186
				c-1.027,0-1.54-0.411-1.54-1.233c0-4.514,0.215-11.318,0.647-20.406c0.429-9.093,0.646-15.915,0.646-20.471
				c0-4.965-0.185-13.912-0.554-26.841c-0.083-3.363-0.288-8.414-0.616-15.145l-0.062-0.799c-0.041-0.616,0.451-0.945,1.479-0.984
				c2.667-0.042,4.76-0.123,6.279-0.246c0.573-0.045,1.661-0.207,3.262-0.492c1.354-0.248,2.421-0.371,3.201-0.371
				c0.369,0,1.006,0.595,1.908,1.785c9.441,12.971,23.887,32.258,43.339,57.868c0.863,1.067,1.665,1.99,2.402,2.771
				c0.285-1.723,0.432-5.664,0.432-11.819c0-5.336-0.197-13.339-0.585-24.009c-0.39-10.672-0.584-18.655-0.584-23.947
				c0-1.354,0.409-2.031,1.231-2.031c0.738,0,1.856,0.062,3.354,0.185c1.497,0.123,2.616,0.185,3.354,0.185
				c0.781,0,1.95-0.062,3.51-0.185c1.559-0.123,2.729-0.185,3.508-0.185C359.399,251.979,359.833,252.43,359.833,253.333z"/>
			<path fill="#FFFFFF" d="M444.296,335.334c0.083,0.9-0.429,1.353-1.539,1.353c-0.616,0-2.102-0.585-4.464-1.756
				c-2.359-1.169-3.867-1.998-4.523-2.489c-7.553,5.129-16.499,7.692-26.843,7.692c-12.066,0-21.998-4.515-29.795-13.543
				c-7.387-8.537-11.082-18.94-11.082-31.212c0-12.557,3.633-23.105,10.897-31.643c7.675-9.028,17.668-13.543,29.979-13.543
				c6.321,0,12.404,1.486,18.254,4.46c5.848,2.979,10.516,7.051,14.005,12.223c0.533,0.779,0.8,1.375,0.8,1.783
				c0,0.575-1.469,2.473-4.403,5.695c-2.934,3.223-4.625,4.834-5.079,4.834c-0.327,0-1.581-1.252-3.753-3.754
				c-2.629-3.038-5.133-5.358-7.513-6.96c-3.733-2.502-7.633-3.754-11.697-3.754c-7.756,0-14.115,3.242-19.083,9.728
				c-4.513,5.909-6.771,12.886-6.771,20.931c0,7.838,2.319,14.775,6.955,20.808c5.049,6.524,11.389,9.789,19.024,9.789
				c7.511,0,14.405-2.052,20.684-6.158c-0.08-1.106-0.431-5.006-1.045-11.695c-0.495-4.76-0.738-8.638-0.738-11.636
				c0-0.697,0.45-1.046,1.353-1.046c0.779,0,1.95,0.052,3.509,0.154c1.559,0.102,2.727,0.153,3.508,0.153
				c0.78,0,1.968-0.04,3.57-0.123c1.602-0.081,2.792-0.123,3.572-0.123c0.861,0,1.294,0.657,1.294,1.971
				c0,1.434-0.054,3.602-0.156,6.495c-0.101,2.893-0.154,5.058-0.154,6.494c0,5.909,0.391,13.912,1.171,24.009L444.296,335.334z"/>
			<path fill="#FFFFFF" d="M516.573,311.753c0,7.143-2.155,13.278-6.463,18.41c-4.556,5.375-10.342,8.064-17.361,8.064
				c-2.627,0-6.578-0.063-11.851-0.185c-5.274-0.126-9.224-0.185-11.852-0.185c-1.929,0-4.832,0.081-8.711,0.243
				c-3.877,0.165-6.783,0.249-8.709,0.249c-1.026,0-1.54-0.473-1.54-1.417c0-4.515,0.215-11.297,0.646-20.346
				c0.43-9.051,0.647-15.834,0.647-20.348c0-4.761-0.217-11.913-0.647-21.453c-0.431-9.543-0.646-16.694-0.646-21.454
				c0-0.903,0.514-1.354,1.54-1.354c3.651,0,9.152,0.017,16.498,0.062c7.346,0.039,12.867,0.062,16.561,0.062
				c8.618,0,15.494,1.599,20.623,4.8c6.236,3.901,9.356,9.954,9.356,18.16c0,2.835-0.819,5.777-2.461,8.835
				s-3.633,5.365-5.972,6.925c-1.192,0.78-1.783,1.292-1.783,1.54c0,0.246,0.591,0.699,1.783,1.354
				c3.119,1.725,5.622,4.258,7.51,7.604C515.628,304.666,516.573,308.142,516.573,311.753z M499.276,276.419
				c0-5.789-2.588-9.687-7.759-11.698c-3.118-1.19-8.228-1.786-15.328-1.786c-6.893,0-10.342,0.514-10.342,1.54
				c0,1.355-0.062,3.385-0.185,6.094s-0.185,4.761-0.185,6.157c0,0.942,0.021,2.401,0.062,4.372
				c0.042,1.968,0.062,3.446,0.062,4.431c0,1.19,4.636,1.786,13.914,1.786C492.688,287.314,499.276,283.684,499.276,276.419z
				 M500.937,311.139c0-5.007-2.238-8.392-6.71-10.158c-2.833-1.148-7.244-1.725-13.235-1.725c-10.343,0-15.514,0.557-15.514,1.663
				v10.097c0,1.479,0.042,3.734,0.123,6.772c0.083,3.036,0.123,5.314,0.123,6.832c0,0.411,1.315,0.719,3.941,0.923
				c2.626,0.206,6.524,0.307,11.697,0.307c6.482,0,11.142-0.841,13.973-2.523C499.068,321.109,500.937,317.048,500.937,311.139z"/>
			<path fill="#FFFFFF" d="M589.777,253.333c0,4.76-0.197,11.892-0.586,21.391c-0.391,9.501-0.588,16.633-0.588,21.394
				c0,1.56,0.022,3.889,0.066,6.989c0.037,3.097,0.057,5.404,0.057,6.925c0,8.576-0.8,14.527-2.398,17.854
				c-2.463,5.088-7.245,8.534-14.348,10.343c-4.347,1.106-10.479,1.66-18.404,1.66c-14.367,0-23.782-2.379-28.255-7.14
				c-3.449-3.695-5.171-11.083-5.171-22.163c0-1.355,0.02-3.644,0.062-6.866c0.037-3.221,0.062-5.754,0.062-7.602
				c0-4.842-0.207-13.77-0.615-26.781c0-3.363-0.185-8.392-0.554-15.081c-0.042-0.492-0.066-0.819-0.066-0.984
				c0-0.86,0.536-1.291,1.604-1.291c1.68,0,3.96,0.017,6.831,0.062c3.327,0.039,5.585,0.062,6.773,0.062
				c0.944,0,1.414,0.369,1.414,1.107c0,6.238-0.13,15.616-0.4,28.134c-0.264,12.517-0.398,21.896-0.398,28.134
				c0,7.056,1.579,11.839,4.74,14.341c2.706,2.216,7.693,3.326,14.958,3.326c6.607,0,11.307-0.903,14.099-2.709
				c3.53-2.256,5.294-6.484,5.294-12.683c0-6.481-0.104-16.219-0.308-29.211c-0.204-12.987-0.307-22.725-0.307-29.209
				c0-0.657,0.595-1.068,1.783-1.23c0.861-0.123,2.094-0.123,3.695,0c1.89,0.162,2.792,0.246,2.711,0.246
				c0.735,0,1.853-0.062,3.354-0.185c1.495-0.123,2.617-0.185,3.353-0.185C589.261,251.979,589.777,252.43,589.777,253.333z"/>
			<path fill="#FFFFFF" d="M666.669,335.457c0,1.929-0.596,2.894-1.784,2.894h-14.16c-1.188,0-4.293-4.372-9.297-13.115
				c-4.227-7.386-7.038-12.722-8.433-16.006c-1.396-3.159-2.195-4.923-2.404-5.292c-1.226-2.055-2.664-3.142-4.305-3.265
				c-0.497-0.042-1.87-0.062-4.126-0.062c-5.171,0-7.759,0.635-7.759,1.909c0,3.773,0.137,9.418,0.402,16.929
				c0.267,7.511,0.399,13.134,0.399,16.869c0,1.355-0.515,2.032-1.538,2.032c-0.779,0-1.948-0.064-3.511-0.186
				c-1.56-0.122-2.73-0.184-3.511-0.184c-0.737,0-1.838,0.062-3.291,0.184c-1.456,0.121-2.557,0.186-3.295,0.186
				c-1.025,0-1.537-0.473-1.537-1.417c0-4.515,0.214-11.297,0.645-20.346c0.431-9.051,0.647-15.834,0.647-20.348
				c0-4.761-0.217-11.913-0.647-21.453c-0.431-9.543-0.645-16.694-0.645-21.454c0-0.903,0.512-1.354,1.537-1.354
				c0.738,0,1.87,0.062,3.389,0.185c1.518,0.123,2.669,0.185,3.444,0.185c0.737,0,1.85-0.062,3.325-0.185
				c1.477-0.123,2.583-0.185,3.326-0.185c0.942,0,1.414,0.369,1.414,1.106c0,3.489-0.115,8.741-0.337,15.758
				c-0.226,7.021-0.339,12.293-0.339,15.823c0,1.602,0.101,2.608,0.305,3.017c0.33,0.738,1.171,1.109,2.526,1.109
				c7.962,0,13.792-1.479,17.482-4.433c3.161-2.628,6.155-7.45,8.989-14.469c2.05-5.498,4.104-10.997,6.157-16.498
				c0.283-0.698,0.923-1.168,1.907-1.414c0.657-0.167,2.834-0.246,6.524-0.246c4.515,0,6.771,0.633,6.771,1.909
				c0,0.735-0.94,4.062-2.83,9.971c-2.214,6.894-5.089,12.97-8.614,18.223c-2.343,3.569-5.442,7.161-9.3,10.772
				c-0.984,0.861-1.477,1.644-1.477,2.338c0,0.74,1.661,4.413,4.986,11.021c2.869,5.705,5.477,10.281,7.819,13.728
				c2.583,3.162,6.197,8.023,10.832,14.592C666.565,334.655,666.669,335.044,666.669,335.457z"/>
			<path fill="#FFFFFF" d="M749.837,337.609c0,0.492-0.492,0.741-1.477,0.741c-0.779,0-1.919-0.064-3.417-0.186
				c-1.496-0.122-2.637-0.184-3.415-0.184c-0.779,0-1.948,0.062-3.51,0.184c-1.558,0.121-2.726,0.186-3.511,0.186
				c-1.149,0-2.615-3.11-4.404-9.329c-1.783-6.217-3.597-9.366-5.444-9.449c-1.518-0.082-5.479-0.123-11.88-0.123h-9.728
				c-6.772,0-10.628,0.041-11.574,0.123c-1.477,0.122-3.049,3.284-4.709,9.48c-1.663,6.197-2.947,9.298-3.846,9.298h-13.855
				c-0.816,0-1.229-0.288-1.229-0.864c0-0.411,0.29-1.333,0.861-2.771l15.085-41.246c1.272-3.323,5.13-12.908,11.572-28.749
				c1.151-2.625,2.709-6.586,4.68-11.881c0.489-1.56,1.023-2.339,1.602-2.339c0.78,0,1.926,0.104,3.446,0.308
				c1.516,0.204,2.667,0.31,3.447,0.31c0.737,0,1.857-0.115,3.355-0.342c1.495-0.224,2.595-0.337,3.292-0.337
				c0.368,0,0.886,0.758,1.537,2.278c0.988,2.298,5.851,14.672,14.594,37.121C743.661,321.4,749.837,337.321,749.837,337.609z
				 M721.148,303.628c0-1.191-1.845-6.524-5.54-16.006c-3.567-9.193-6.094-15.226-7.569-18.1
				c-8.498,21.669-12.744,33.018-12.744,34.046c0,1.393,1.558,2.214,4.677,2.461c0.165,0.041,2.175,0.063,6.037,0.063h6.335
				C718.217,306.093,721.148,305.271,721.148,303.628z"/>
		</g>
	</g>
</g>
</svg>
