<svg width="24" height="21" viewBox="0 0 24 21" fill="none" xmlns="http://www.w3.org/2000/svg">
<g id="Vector">
<path d="M23 9.45508H1C0.447715 9.45508 0 9.90279 0 10.4551C0 11.0074 0.447715 11.4551 1 11.4551H23C23.5523 11.4551 24 11.0074 24 10.4551C24 9.90279 23.5523 9.45508 23 9.45508Z" fill="#585865"/>
<path d="M10.7067 2.16256C10.8943 1.97502 11 1.72029 11 1.45508C11 1.18986 10.8946 0.935508 10.7071 0.747971L10.6985 0.739443C10.5117 0.557478 10.2607 0.455078 10 0.455078C9.73478 0.455078 9.48043 0.560435 9.29289 0.747971L0.292893 9.74797C0.105357 9.93551 0 10.1899 0 10.4551C-5.96046e-08 10.7203 0.105357 10.9746 0.292893 11.1622L9.29289 20.1622C9.48043 20.3497 9.73478 20.4551 10 20.4551C10.2652 20.4551 10.5196 20.3497 10.7071 20.1622C10.8946 19.9746 11 19.7203 11 19.4551C11 19.1899 10.8946 18.9355 10.7071 18.748L2.41421 10.4551L10.7067 2.16256Z" fill="#585865"/>
</g>
</svg>
