<svg width="16" height="17" viewBox="0 0 16 17" fill="none" xmlns="http://www.w3.org/2000/svg">
<path fill-rule="evenodd" clip-rule="evenodd" d="M5.41751 7.00006L2.58151 7.00005C2.16538 6.99659 1.76492 7.15859 1.46824 7.4504C1.17155 7.74221 1.00295 8.13993 0.999511 8.55605L0.99951 14.4451C1.00721 15.3112 1.71535 16.0073 2.58151 16.0001L5.41751 16.0001C5.83364 16.0035 6.2341 15.8415 6.53078 15.5497C6.82747 15.2579 6.99608 14.8602 6.99951 14.4441L6.99951 8.55606C6.99608 8.13993 6.82747 7.74221 6.53079 7.4504C6.2341 7.15859 5.83364 6.99659 5.41751 7.00006Z" stroke="#1E293B" stroke-width="1.5" stroke-linecap="round" stroke-linejoin="round"/>
<path fill-rule="evenodd" clip-rule="evenodd" d="M5.41751 1.0006L2.58151 1.0006C1.73277 0.977062 1.0251 1.64492 0.999511 2.4936L0.999511 3.5076C1.0251 4.35629 1.73277 5.02415 2.58151 5.0006L5.41751 5.0006C6.26625 5.02415 6.97392 4.35629 6.99951 3.5076L6.99951 2.4936C6.97392 1.64492 6.26626 0.977063 5.41751 1.0006Z" stroke="#1E293B" stroke-width="1.5" stroke-linecap="round" stroke-linejoin="round"/>
<path fill-rule="evenodd" clip-rule="evenodd" d="M10.5815 10.001L13.4165 10.001C13.8328 10.0048 14.2335 9.84288 14.5304 9.55105C14.8273 9.25921 14.9961 8.86134 14.9995 8.44503L14.9995 2.55703C14.9961 2.1409 14.8275 1.74318 14.5308 1.45137C14.2341 1.15956 13.8336 0.99757 13.4175 1.00103L10.5815 1.00103C10.1654 0.997569 9.76492 1.15956 9.46824 1.45137C9.17155 1.74318 9.00295 2.1409 8.99951 2.55703L8.99951 8.44503C9.00294 8.86116 9.17155 9.25888 9.46824 9.55069C9.76492 9.8425 10.1654 10.0045 10.5815 10.001Z" stroke="#1E293B" stroke-width="1.5" stroke-linecap="round" stroke-linejoin="round"/>
<path fill-rule="evenodd" clip-rule="evenodd" d="M10.5815 16.0006L13.4165 16.0006C14.2656 16.0247 14.9739 15.3567 14.9995 14.5076L14.9995 13.4936C14.9739 12.6449 14.2663 11.9771 13.4175 12.0006L10.5815 12.0006C9.73277 11.9771 9.0251 12.6449 8.99951 13.4936L8.99951 14.5066C9.02456 15.3557 9.73239 16.0241 10.5815 16.0006Z" stroke="#1E293B" stroke-width="1.5" stroke-linecap="round" stroke-linejoin="round"/>
</svg>
