<svg width="64" height="64" viewBox="0 0 64 64" fill="none" xmlns="http://www.w3.org/2000/svg">
<g filter="url(#filter0_d_2310_27981)">
<rect x="17" y="17" width="30" height="30" rx="15" fill="#ECECEE"/>
<path d="M25.5889 35.2209L25.0015 35.3431L25.5889 35.2209ZM26.446 36.4385L26.1329 36.9503C26.141 36.9553 26.1491 36.96 26.1574 36.9646L26.446 36.4385ZM27.9256 36.5742L28.1137 37.144L27.9256 36.5742ZM24.1503 32.7545L23.8451 33.2712L23.8494 33.2737L24.1503 32.7545ZM23.759 32.174L24.3524 32.085H24.3524L23.759 32.174ZM23.9628 31.5043L24.406 31.9087L24.4083 31.9061L23.9628 31.5043ZM27.1488 27.9718L26.7036 27.5696L26.7032 27.5699L27.1488 27.9718ZM27.2373 27.8878L27.6158 28.3534L27.6161 28.3531L27.2373 27.8878ZM31.6893 27.3245L31.3885 27.8437L31.392 27.8457L31.6893 27.3245ZM30.7735 36.5923L30.4727 37.1114L30.476 37.1133L30.7735 36.5923ZM31.4238 36.659L31.2383 36.0884L31.4238 36.659ZM35.4791 37.1656L35.6559 36.5923L35.4791 37.1656ZM37.3597 36.6601L37.8002 37.0675L37.3597 36.6601ZM32.2705 36.2135L32.1138 35.6344L32.1131 35.6346L32.2705 36.2135ZM39.6565 34.2245L39.8133 34.8037L39.818 34.8024L39.6565 34.2245ZM40.184 33.765L39.6337 33.5259L39.6336 33.5259L40.184 33.765ZM40.1598 33.0658L39.6255 33.3388L39.6273 33.3423L40.1598 33.0658ZM37.993 28.8245L37.4587 29.0974L37.4587 29.0975L37.993 28.8245ZM37.9293 28.7203L38.4157 28.369L38.4155 28.3687L37.9293 28.7203ZM33.7743 27.02L33.913 27.6038C33.9187 27.6024 33.9244 27.601 33.9302 27.5994L33.7743 27.02ZM33.4293 31.4743L34.0216 31.5697L34.0219 31.5681L33.4293 31.4743ZM33.4008 31.5928L32.8298 31.4084L32.8295 31.4094L33.4008 31.5928ZM31.945 36.128L32.5158 36.3129L32.5163 36.3114L31.945 36.128ZM25.3983 33.418C25.006 33.9774 24.8623 34.6741 25.0015 35.3431L26.1763 35.0988C26.1047 34.7541 26.1787 34.3952 26.3808 34.1071L25.3983 33.418ZM25.0015 35.3431C25.1406 36.012 25.5501 36.5937 26.1329 36.9503L26.7592 35.9267C26.4589 35.743 26.248 35.4434 26.1763 35.0988L25.0015 35.3431ZM26.1574 36.9646C26.7564 37.2932 27.465 37.3582 28.1137 37.144L27.7375 36.0045C27.4049 36.1143 27.0417 36.081 26.7346 35.9125L26.1574 36.9646ZM28.1137 37.144C28.7624 36.9298 29.293 36.4557 29.5786 35.8351L28.4885 35.3335C28.3421 35.6517 28.0701 35.8947 27.7375 36.0045L28.1137 37.144ZM26.1904 33.2434L24.4511 32.2354L23.8494 33.2737L25.5887 34.2817L26.1904 33.2434ZM24.4554 32.2379C24.3998 32.2051 24.362 32.1489 24.3524 32.085L23.1657 32.263C23.2288 32.6842 23.4784 33.0545 23.8451 33.2712L24.4554 32.2379ZM24.3524 32.085C24.3428 32.0212 24.3625 31.9564 24.406 31.9087L23.5195 31.0999C23.2325 31.4146 23.1025 31.8418 23.1657 32.263L24.3524 32.085ZM24.4083 31.9061L27.5943 28.3736L26.7032 27.5699L23.5172 31.1024L24.4083 31.9061ZM27.594 28.374C27.6007 28.3666 27.608 28.3597 27.6158 28.3534L26.8588 27.4222C26.8034 27.4673 26.7515 27.5165 26.7036 27.5696L27.594 28.374ZM27.6161 28.3531C28.405 27.7109 29.0342 27.4257 29.5914 27.3635C30.1389 27.3024 30.7039 27.4471 31.3886 27.8437L31.99 26.8053C31.165 26.3274 30.3409 26.0724 29.4583 26.1709C28.5855 26.2683 27.7436 26.7019 26.8585 27.4225L27.6161 28.3531ZM31.392 27.8457C31.5769 27.9512 31.7543 28.0694 31.9228 28.1994L32.6557 27.2492C32.4432 27.0853 32.2197 26.9363 31.9866 26.8034L31.392 27.8457ZM25.5888 34.2817L28.7335 36.1035L29.335 35.0651L26.1903 33.2434L25.5888 34.2817ZM28.7334 36.1034L30.4727 37.1114L31.0744 36.0732L29.3351 35.0652L28.7334 36.1034ZM30.476 37.1133C30.8206 37.3101 31.2321 37.3523 31.6094 37.2296L31.2383 36.0884C31.1826 36.1065 31.1219 36.1003 31.071 36.0712L30.476 37.1133ZM31.6094 37.2296C31.9867 37.1069 32.2947 36.8307 32.4576 36.4689L31.3635 35.9761C31.3394 36.0295 31.294 36.0703 31.2383 36.0884L31.6094 37.2296ZM33.6166 35.777C33.7543 36.7008 34.4097 37.4637 35.3022 37.739L35.6559 36.5923C35.2046 36.4531 34.8731 36.0673 34.8035 35.6001L33.6166 35.777ZM35.3022 37.739C36.1947 38.0143 37.166 37.7532 37.8002 37.0675L36.9192 36.2527C36.5985 36.5995 36.1073 36.7315 35.6559 36.5923L35.3022 37.739ZM37.8002 37.0675C38.4343 36.3818 38.6189 35.3931 38.2748 34.5248L37.1592 34.9668C37.3332 35.4059 37.2399 35.9059 36.9192 36.2527L37.8002 37.0675ZM34.0533 35.1094L32.1138 35.6344L32.4273 36.7927L34.3668 36.2677L34.0533 35.1094ZM32.1131 35.6346C32.0849 35.6422 32.0553 35.6433 32.0266 35.6376L31.7945 36.815C32.0045 36.8564 32.2213 36.8487 32.428 36.7925L32.1131 35.6346ZM34.3658 36.2717L37.8728 35.329L37.5613 34.1701L34.0543 35.1129L34.3658 36.2717ZM37.8738 35.3287L39.8133 34.8037L39.4998 33.6454L37.5603 34.1704L37.8738 35.3287ZM39.818 34.8024C40.2281 34.6878 40.5647 34.3945 40.7343 34.004L39.6336 33.5259C39.608 33.585 39.5571 33.6293 39.4951 33.6467L39.818 34.8024ZM40.7343 34.004C40.904 33.6134 40.8885 33.1672 40.6923 32.7893L39.6273 33.3423C39.657 33.3994 39.6593 33.4669 39.6337 33.5259L40.7343 34.004ZM40.6941 32.7928L38.5273 28.5516L37.4587 29.0975L39.6255 33.3388L40.6941 32.7928ZM38.5274 28.5517C38.4949 28.488 38.4575 28.4269 38.4157 28.369L37.4429 29.0716C37.4488 29.0798 37.4541 29.0884 37.4587 29.0974L38.5274 28.5517ZM38.4155 28.3687C37.7463 27.4434 37.0452 26.8061 36.2276 26.4853C35.4006 26.1609 34.5389 26.193 33.6184 26.4406L33.9302 27.5994C34.6934 27.3941 35.2762 27.4011 35.7893 27.6024C36.3117 27.8074 36.8463 28.2467 37.4431 29.0719L38.4155 28.3687ZM33.6356 26.4363C33.0144 26.5838 32.4311 26.8601 31.9233 27.2471L32.6507 28.2015C33.0251 27.9162 33.4551 27.7126 33.913 27.6038L33.6356 26.4363ZM31.9181 28.1975C32.3652 28.546 32.6426 28.9296 32.7906 29.4033C32.9427 29.8903 32.9727 30.5206 32.8367 31.3805L34.0219 31.5681C34.1746 30.6033 34.1626 29.771 33.936 29.0455C33.7052 28.3066 33.2672 27.7276 32.6559 27.2511L31.9181 28.1975ZM32.8369 31.3789C32.8353 31.3889 32.8329 31.3988 32.8298 31.4084L33.9718 31.7771C33.9936 31.7094 34.0103 31.64 34.0216 31.5697L32.8369 31.3789ZM32.8295 31.4094L31.3737 35.9447L32.5163 36.3114L33.9721 31.7762L32.8295 31.4094ZM31.3742 35.9432C31.3713 35.9522 31.3679 35.961 31.3639 35.9697L32.4542 36.4709C32.4778 36.4195 32.4984 36.3667 32.5158 36.3129L31.3742 35.9432Z" fill="#1B1B1B"/>
<circle cx="3" cy="3" r="3.5" transform="matrix(1 0 0 -1 35 30)" fill="#2BAF29" stroke="#ECECEE"/>
<rect x="16.5" y="16.5" width="31" height="31" rx="15.5" stroke="white"/>
</g>
<defs>
<filter id="filter0_d_2310_27981" x="0" y="0" width="64" height="64" filterUnits="userSpaceOnUse" color-interpolation-filters="sRGB">
<feFlood flood-opacity="0" result="BackgroundImageFix"/>
<feColorMatrix in="SourceAlpha" type="matrix" values="0 0 0 0 0 0 0 0 0 0 0 0 0 0 0 0 0 0 127 0" result="hardAlpha"/>
<feOffset/>
<feGaussianBlur stdDeviation="8"/>
<feComposite in2="hardAlpha" operator="out"/>
<feColorMatrix type="matrix" values="0 0 0 0 0 0 0 0 0 0 0 0 0 0 0 0 0 0 0.1 0"/>
<feBlend mode="normal" in2="BackgroundImageFix" result="effect1_dropShadow_2310_27981"/>
<feBlend mode="normal" in="SourceGraphic" in2="effect1_dropShadow_2310_27981" result="shape"/>
</filter>
</defs>
</svg>
